PathFileType	4	(X/Y/Z)	C:/Users/opensim2020/Desktop/walking_exp_matlab/subject06_walking14_straight_03.trc																																																																																																																																					
DataRate	CameraRate	NumFrames	NumMarkers	Units	OrigDataRate	OrigDataStartFrame	OrigNumFrames																																																																																																																																	
100	100	9	45	mm	100	2295	233																																																																																																																																	
Frame#	Time	LFHD			RFHD			LBHD			RBHD			C7			T10			CLAV			STRN			RBAK			LSHO			LUPA			LELB			LFRM			LWRA			LWRB			LFIN			RSHO			RUPA			RELB			RFRM			RWRA			RWRB			RFIN			LASI			RASI			LPSI			RPSI			LTHI			LKNE			LTIB			LANK			LHEE			LTOE			RTHI			RKNE			RTIB			RANK			RHEE			RTOE			*39			*40			*41			*42			*43			*44		
		X1	Y1	Z1	X2	Y2	Z2	X3	Y3	Z3	X4	Y4	Z4	X5	Y5	Z5	X6	Y6	Z6	X7	Y7	Z7	X8	Y8	Z8	X9	Y9	Z9	X10	Y10	Z10	X11	Y11	Z11	X12	Y12	Z12	X13	Y13	Z13	X14	Y14	Z14	X15	Y15	Z15	X16	Y16	Z16	X17	Y17	Z17	X18	Y18	Z18	X19	Y19	Z19	X20	Y20	Z20	X21	Y21	Z21	X22	Y22	Z22	X23	Y23	Z23	X24	Y24	Z24	X25	Y25	Z25	X26	Y26	Z26	X27	Y27	Z27	X28	Y28	Z28	X29	Y29	Z29	X30	Y30	Z30	X31	Y31	Z31	X32	Y32	Z32	X33	Y33	Z33	X34	Y34	Z34	X35	Y35	Z35	X36	Y36	Z36	X37	Y37	Z37	X38	Y38	Z38	X39	Y39	Z39	X40	Y40	Z40	X41	Y41	Z41	X42	Y42	Z42	X43	Y43	Z43	X44	Y44	Z44	X45	Y45	Z45
																																																																																																																																								
88	0.87	-107.69517	1669.24463	1381.61218	-99.6526	1661.79749	1513.1748	-238.29529	1608.99377	1390.60718	-229.00768	1607.13928	1520.27808	-227.88716	1455.26233	1449.94299	-272.27408	1130.59119	1471.20618	-117.26465	1378.40991	1447.87964	-82.12003	1201.2052	1445.92395	-296.62793	1291.04614	1541.93604	-177.72337	1406.6272	1286.71692	-222.38496	1207.03235	1224.18127	-253.44385	1099.14429	1220.88696	-267.35272	948.66205	1202.7157	-236.87219	822.80902	1246.60986	-296.10532	833.16486	1208.3313	-278.65213	743.3255	1211.52771	-154.48058	1415.65491	1607.45203	-149.08583	1225.24744	1712.86646	-104.24203	1113.42627	1735.51196	-33.49587	1017.74762	1751.27539	83.40232	927.98749	1708.41309	42.50292	903.60345	1755.71497	113.64119	859.52429	1752.89868	-98.62173	967.22937	1356.49976	-98.47585	968.67719	1575.22595	-259.37018	993.07233	1385.29626	-250.12239	998.57336	1553.79333	-109.39876	658.70221	1289.75305	-57.11385	504.43906	1315.25708	-62.9665	249.67548	1318.13428	-36.9224	77.33315	1352.88855	-70.3304	58.06929	1401.99072	108.77191	61.98744	1346.03113	-188.80328	633.95197	1619.83594	-207.81058	509.1376	1596.16284	-304.89554	257.07458	1584.00854	-346.6842	76.74787	1527.56787	-387.84241	56.261	1481.06384	-196.34865	36.97561	1533.48267	-206.20218	1705.22339	1445.66943	NaN	NaN	NaN	NaN	NaN	NaN	NaN	NaN	NaN	NaN	NaN	NaN	NaN	NaN	NaN
89	0.88	-97.97435	1667.54089	1380.96887	-89.81779	1660.35107	1512.46216	-228.4984	1607.31714	1390.146	-219.24263	1605.70862	1519.67896	-218.29399	1453.66187	1449.91321	-262.35785	1128.90247	1471.2428	-107.46335	1376.995	1447.64844	-72.23103	1199.70898	1445.93909	-286.64972	1289.39331	1542.28418	-168.67435	1405.02563	1286.61157	-215.27826	1205.95471	1224.49927	-247.58167	1098.44092	1221.54919	-263.35455	948.09705	1203.78015	-233.11334	822.34222	1247.00049	-292.78537	832.80969	1209.74695	-276.81668	742.93311	1213.09021	-144.41685	1414.35779	1607.21594	-138.35007	1224.28906	1713.10205	-92.63	1112.87488	1736.0271	-20.35496	1018.45898	1751.48486	97.89076	930.82727	1708.09485	57.60109	905.64282	1755.44043	128.9341	862.591	1751.92297	-87.90842	965.71436	1356.87561	-88.77272	967.1698	1575.61414	-248.73723	991.46405	1384.9259	-240.42989	996.99377	1553.54382	-99.8075	657.00275	1289.31567	-46.52364	503.43515	1315.26379	-41.43045	248.62589	1318.39514	-6.40408	77.61255	1353.12537	-39.11454	57.78838	1402.24866	140.03593	65.05453	1346.75745	-181.15797	632.72919	1619.84277	-201.12733	508.04947	1596.32825	-301.83356	257.16388	1583.77124	-346.15503	77.43074	1527.43127	-387.33319	57.17422	1480.77661	-196.11246	36.86959	1533.53503	-196.43832	1703.65442	1445.0437	NaN	NaN	NaN	NaN	NaN	NaN	NaN	NaN	NaN	NaN	NaN	NaN	NaN	NaN	NaN
90	0.89	-88.19344	1665.8147	1380.25671	-79.93292	1658.83057	1511.79871	-218.73723	1605.5835	1389.68518	-209.5657	1604.19177	1519.04163	-208.146	1451.91235	1449.69812	-252.38208	1127.09375	1471.12451	-97.66422	1375.43933	1447.37573	-62.32127	1198.17126	1445.90442	-276.39911	1287.78906	1542.45276	-159.50197	1403.28955	1286.45618	-207.87077	1204.78186	1224.71497	-241.306	1097.44836	1222.39966	-258.9115	947.4101	1204.76196	-230.35809	821.19507	1248.48853	-289.99625	832.46912	1211.31897	-274.3168	742.41943	1214.48596	-134.28786	1413.01672	1606.92676	-127.65131	1223.20935	1713.1615	-81.20656	1112.21619	1736.38391	-7.61642	1018.8924	1751.6073	112.22526	933.44806	1707.52271	72.12012	907.37817	1755.10352	144.7827	865.84174	1751.771	-76.53999	964.1098	1357.15991	-78.99409	965.66254	1575.94165	-238.20836	989.78448	1384.41406	-230.68925	995.24188	1553.15186	-89.91381	655.27783	1288.6936	-35.94859	502.11862	1315.13367	-20.26624	247.8511	1318.73584	22.23974	78.49818	1353.2135	-9.22735	58.0855	1403.06909	170.16386	68.79918	1347.55774	-173.62857	631.53156	1619.83496	-193.98665	506.8439	1596.04883	-298.74615	257.30475	1583.52905	-345.60184	78.23505	1527.20935	-386.85388	58.39316	1480.46948	-195.93069	36.82552	1533.56592	-186.57069	1702.03381	1444.36414	NaN	NaN	NaN	NaN	NaN	NaN	NaN	NaN	NaN	NaN	NaN	NaN	NaN	NaN	NaN
91	0.9	-78.31361	1664.00049	1379.5105	-69.94571	1657.21899	1511.09668	-208.85594	1603.78088	1389.1012	-199.7738	1602.63098	1518.35754	-198.20625	1450.19446	1449.46387	-242.29256	1125.25085	1470.87854	-87.77263	1373.77393	1446.98621	-52.3095	1196.57544	1445.85498	-266.31027	1286.05432	1542.66162	-150.17064	1401.47253	1286.26025	-200.29543	1203.58716	1224.77747	-234.97989	1096.75269	1222.66516	-254.00342	946.65533	1205.61206	-225.58655	820.5506	1248.66492	-286.2746	832.03436	1212.67371	-271.24695	741.8335	1215.74939	-124.11739	1411.57068	1606.57751	-116.98302	1221.99756	1713.14746	-69.94591	1111.40344	1736.59924	4.83711	1019.14905	1751.63477	125.55707	935.52716	1707.16211	86.2365	908.8277	1754.64563	159.52783	868.38354	1750.96326	-65.71259	962.52136	1357.5791	-68.88129	964.23608	1576.07349	-227.07774	987.89734	1383.91101	-220.86281	993.4397	1552.68433	-79.65094	653.59766	1287.86072	-25.52691	500.63248	1314.69116	0.32984	247.15926	1318.93811	49.77311	79.49619	1353.53406	19.11666	58.63776	1403.53516	198.34322	73.50382	1348.26221	-165.5071	630.22406	1619.90088	-186.88908	505.70798	1596.17725	-295.4043	257.5806	1583.14929	-344.97867	79.25954	1527.03418	-386.28104	59.53635	1480.10938	-196.1572	36.80942	1533.75769	-176.65393	1700.30798	1443.61682	NaN	NaN	NaN	NaN	NaN	NaN	NaN	NaN	NaN	NaN	NaN	NaN	NaN	NaN	NaN
92	0.91	-68.4059	1662.0907	1378.73328	-59.9953	1655.547	1510.34338	-198.8961	1601.88623	1388.5105	-189.84024	1600.92261	1517.82471	-188.21648	1448.42505	1449.19861	-231.96553	1123.29102	1470.48621	-77.9026	1372.03479	1446.67297	-42.23047	1194.93433	1445.77161	-256.31628	1284.42993	1542.79626	-140.64143	1399.60193	1285.97534	-192.54524	1202.32971	1224.6499	-227.96852	1095.62073	1223.18005	-248.51926	945.83997	1206.30469	-221.49915	819.32184	1249.86157	-281.3049	831.31396	1214.02759	-267.41882	741.22491	1216.88464	-113.89313	1410.06287	1606.19763	-106.34357	1220.73376	1713.11536	-58.82923	1110.4386	1736.71423	16.96995	1019.16034	1751.51746	138.48897	937.21014	1706.72729	99.85259	909.8822	1754.10742	173.06456	870.22156	1749.7417	-54.56549	960.8927	1358.06592	-58.52527	962.74847	1576.06934	-216.19835	986.05444	1383.16882	-211.23923	991.57068	1552.06946	-68.80636	652.05316	1286.84534	-15.08558	498.8808	1314.49854	19.83481	246.48048	1319.05286	75.42358	80.625	1353.87183	45.5418	58.9726	1403.90906	224.56235	79.35343	1348.92627	-157.37917	628.99963	1619.70837	-179.46222	504.47037	1596.01636	-291.86414	257.82837	1582.78687	-344.23587	80.37833	1526.73083	-385.75031	61.2665	1479.77173	-195.63646	36.84069	1533.83215	-166.67159	1698.53687	1442.86401	NaN	NaN	NaN	NaN	NaN	NaN	NaN	NaN	NaN	NaN	NaN	NaN	NaN	NaN	NaN
93	0.92	-58.36023	1660.16626	1377.90527	-49.95734	1653.80981	1509.51892	-188.84123	1599.96765	1387.81519	-179.7189	1599.22351	1517.24841	-178.40703	1446.60938	1448.90381	-221.55579	1121.26404	1469.94153	-67.88298	1370.22363	1446.26453	-32.04345	1193.20618	1445.57532	-246.2359	1282.68384	1542.70142	-131.06099	1397.70288	1285.66821	-184.32309	1200.96619	1224.71057	-221.39241	1094.76917	1223.25244	-242.57687	944.84357	1206.92322	-215.59537	818.46808	1249.81091	-276.07953	830.61414	1215.04834	-263.05524	740.36652	1217.91174	-103.70039	1408.46765	1605.77515	-95.7579	1219.36938	1712.94836	-47.89833	1109.39185	1736.65356	28.82527	1018.90692	1751.26721	151.21756	938.55133	1706.05676	112.93852	910.64575	1753.50073	187.26265	872.11652	1749.44653	-43.12579	959.25824	1358.23242	-48.83693	961.08118	1576.64526	-204.89868	984.16217	1382.29504	-200.96889	989.57019	1551.15796	-57.42099	650.39404	1285.78723	-3.89877	497.33554	1314.04565	38.42646	245.99731	1319.08228	99.16655	81.76533	1354.24097	70.15351	59.14332	1404.05615	248.65596	85.92908	1349.71521	-149.20963	627.73401	1619.29761	-171.78317	503.24963	1595.83606	-288.10803	258.18024	1582.35657	-343.46811	81.60913	1526.47583	-385.45847	63.26412	1479.48486	-195.8204	36.82875	1533.80811	-156.69496	1696.67114	1442.05066	NaN	NaN	NaN	NaN	NaN	NaN	NaN	NaN	NaN	NaN	NaN	NaN	NaN	NaN	NaN
94	0.93	-48.27166	1658.27417	1377.07751	-39.8254	1652.12756	1508.70435	-178.7182	1598.0509	1387.04065	-169.46568	1597.46411	1516.51172	-168.31923	1444.73438	1448.46265	-211.12737	1119.23132	1469.39551	-57.73816	1368.47058	1445.84497	-21.75927	1191.51196	1445.42786	-235.95616	1280.87378	1542.41858	-121.3364	1395.76965	1285.28833	-175.86685	1199.51575	1224.6178	-214.03935	1093.60205	1223.41431	-236.44125	943.89294	1207.45313	-209.78859	817.28888	1250.30225	-270.93866	829.92017	1215.80493	-258.00809	739.54376	1218.79736	-93.58826	1406.78418	1605.2948	-85.17951	1217.9325	1712.68689	-37.09924	1108.14502	1736.44653	40.39422	1018.40503	1750.91748	163.44458	939.3988	1705.36987	125.5636	911.01721	1752.81641	199.71326	873.00549	1748.04822	-31.85542	957.61438	1358.45032	-38.66314	959.42279	1576.88684	-193.8418	982.37885	1381.15149	-190.83302	987.63104	1550.18127	-45.3681	648.74677	1284.82312	7.91451	495.96875	1313.61584	55.60523	245.60048	1319.05627	121.95457	83.08219	1354.55688	92.64304	59.3252	1404.03247	270.62933	91.88152	1350.69104	-140.49788	626.50165	1618.94177	-163.75482	502.00302	1595.57397	-284.10294	258.67844	1581.87024	-342.68939	83.11662	1526.40198	-384.54034	65.02457	1479.27502	-195.6817	36.7611	1533.75671	-146.63631	1694.84729	1441.16919	NaN	NaN	NaN	NaN	NaN	NaN	NaN	NaN	NaN	NaN	NaN	NaN	NaN	NaN	NaN
95	0.94	-38.04911	1656.41638	1376.22083	-29.66537	1650.49194	1507.88098	-168.53146	1596.18347	1386.22278	-159.25928	1595.79163	1515.61829	-158.02553	1442.84253	1447.83984	-200.5493	1117.26074	1468.73425	-47.59356	1366.75061	1445.35535	-11.31124	1189.86572	1445.26563	-226.06479	1279.13049	1542.11414	-111.4641	1393.82227	1284.80359	-167.01311	1198.03162	1224.3241	-206.23463	1092.39709	1223.57507	-229.65454	942.84821	1207.78345	-203.25917	816.12286	1250.50989	-264.82651	829.15387	1216.53369	-252.12741	738.55676	1219.55884	-83.53735	1405.13538	1604.80554	-74.65654	1216.41382	1712.39783	-26.4787	1106.82141	1736.09912	51.43901	1017.5946	1750.3252	175.20303	939.8056	1704.65247	137.83191	911.04169	1752.18604	212.14661	873.64905	1747.05981	-20.53709	955.99866	1358.50256	-28.30587	957.72742	1577.10852	-182.31622	980.52576	1380.00928	-180.46272	985.79999	1549.03992	-32.67439	647.23541	1284.21167	20.71742	495.22672	1313.51001	72.11272	245.37366	1318.93152	141.45329	84.15387	1354.3728	112.40305	59.51119	1404.01648	290.39127	96.28197	1351.50403	-131.56619	625.28418	1618.54712	-155.33539	500.80264	1595.22021	-280.05838	259.43369	1581.69128	-341.71677	84.81732	1526.46509	-383.91208	67.48658	1479.36243	-195.51904	36.68421	1533.63013	-136.4417	1693.05493	1440.17261	NaN	NaN	NaN	NaN	NaN	NaN	NaN	NaN	NaN	NaN	NaN	NaN	NaN	NaN	NaN
96	0.95	-27.66765	1654.66223	1375.31995	-19.44872	1648.9043	1506.95886	-158.15991	1594.41772	1385.2356	-149.07751	1594.19495	1514.74841	-147.88521	1441.12781	1447.24133	-189.81372	1115.19971	1467.95105	-37.34857	1365.11377	1444.87878	-0.73912	1188.32129	1445.02197	-215.81184	1277.36597	1541.43665	-101.46963	1391.93347	1284.2207	-157.55196	1196.43408	1224.47095	-197.76532	1091.12915	1223.56824	-222.20105	941.69733	1208.00989	-196.15421	814.9198	1250.60059	-258.01801	828.35895	1216.96216	-245.62801	737.56757	1220.11047	-73.56698	1403.51953	1604.3114	-64.28462	1214.83557	1711.95886	-16.02001	1105.38928	1735.68481	62.50275	1016.73047	1749.9198	186.59895	939.84296	1703.83508	149.42403	910.72333	1751.38623	224.06165	873.92804	1746.21545	-7.57545	954.54504	1357.74353	-17.81772	956.0144	1576.99561	-171.1169	978.88977	1378.68384	-169.96748	983.99512	1547.79614	-19.56985	645.79974	1283.91333	33.66858	494.64627	1313.80261	87.73969	244.97972	1318.86292	159.07762	84.64525	1354.02246	130.54639	59.40714	1403.61804	308.0141	98.84798	1352.39185	-122.38672	624.14539	1618.08264	-146.58177	499.6326	1594.67822	-275.50534	260.14651	1581.40906	-340.53677	86.69218	1526.59668	-383.15024	70.1142	1479.61438	-195.33238	36.59739	1533.47583	-126.15001	1691.37048	1439.09729	NaN	NaN	NaN	NaN	NaN	NaN	NaN	NaN	NaN	NaN	NaN	NaN	NaN	NaN	NaN
